<?xml version="1.0" encoding="utf-8"?>
<!-- Generator: Adobe Illustrator 16.0.3, SVG Export Plug-In . SVG Version: 6.00 Build 0)  -->
<!DOCTYPE svg PUBLIC "-//W3C//DTD SVG 1.1//EN" "http://www.w3.org/Graphics/SVG/1.1/DTD/svg11.dtd">
<svg version="1.1" id="Capa_1" xmlns="http://www.w3.org/2000/svg" xmlns:xlink="http://www.w3.org/1999/xlink" x="0px" y="0px"
	 width="198.223px" height="196.5px" viewBox="0 0 198.223 196.5" enable-background="new 0 0 198.223 196.5" xml:space="preserve">
<g>
	<path fill="#F8120D" d="M36.5,42.75"/>
	<path fill="#F8120D" d="M160.5,75.5"/>
	<circle fill="none" stroke="#F88211" stroke-width="5" stroke-miterlimit="10" cx="99.353" cy="98.778" r="94.25"/>
</g>
<line fill="none" x1="468.223" y1="208.75" x2="231.223" y2="208.75"/>
<g enable-background="new    ">
	<path stroke="#000000" stroke-miterlimit="10" d="M47.043,111.385c0,0.8,0.186,1.507,0.557,2.121
		c0.371,0.614,1.118,1.033,2.241,1.257c1.123,0.225,1.792,0.454,2.007,0.688c0.215,0.234,0.322,0.518,0.322,0.85
		c0,0.352-0.151,0.649-0.453,0.894s-0.736,0.366-1.301,0.366c-0.429,0-1.258-0.093-2.485-0.278c-1.228-0.186-2.252-0.278-3.07-0.278
		c-0.546,0-1.521,0.093-2.924,0.278c-1.403,0.186-2.407,0.278-3.012,0.278c-1.248,0-1.871-0.459-1.871-1.377
		c0-0.449,0.136-0.747,0.41-0.894c0.273-0.146,0.703-0.249,1.289-0.308c1.425-0.156,2.319-0.425,2.681-0.805
		c0.361-0.381,0.542-1.273,0.542-2.679V86.388c0-1.073-0.05-1.61-0.15-1.61c-0.14,0-0.471,0.518-0.992,1.551l-4.535,8.867
		c-1.892,3.707-3.613,6.999-5.165,9.877c-1.551,2.877-2.38,4.424-2.487,4.638c-0.107,0.215-0.23,0.391-0.367,0.526
		c-0.137,0.137-0.352,0.205-0.645,0.205c-0.489,0-0.929-0.381-1.32-1.142l-10.94-21.653c-0.508-1.015-0.82-1.521-0.938-1.521
		c-0.098,0-0.146,0.507-0.146,1.521v24.793c0,0.722,0.312,1.321,0.938,1.798c0.625,0.479,1.23,0.717,1.816,0.717
		c1.641,0,2.461,0.464,2.461,1.392c0,0.85-0.713,1.274-2.139,1.274c-0.234,0-0.894-0.103-1.978-0.308s-1.851-0.308-2.3-0.308
		c-0.586,0-1.392,0.112-2.417,0.337s-1.753,0.337-2.183,0.337c-0.625,0-1.133-0.163-1.523-0.488
		c-0.391-0.325-0.586-0.666-0.586-1.021s0.229-0.666,0.688-0.933c0.458-0.267,0.991-0.399,1.597-0.399
		c1.914,0,2.871-1.121,2.871-3.363V80.876c0-0.8-0.254-1.487-0.762-2.063c-0.508-0.575-1.23-0.926-2.168-1.053
		S7.052,77.434,6.76,77.16S6.32,76.545,6.32,76.135c0-0.293,0.19-0.557,0.572-0.791c0.381-0.234,0.767-0.352,1.158-0.352
		c0.41,0,0.918,0.083,1.524,0.249c0.605,0.166,1.094,0.249,1.466,0.249c0.371,0,0.84-0.083,1.407-0.249
		c0.567-0.166,1.026-0.249,1.378-0.249c0.469,0,0.845,0.186,1.129,0.557c0.283,0.371,0.679,1.113,1.188,2.227l6.655,13.418
		l5.57,11.162c0.234,0.469,0.411,0.703,0.528,0.703c0.136,0,0.312-0.215,0.527-0.645c6.031-11.328,10.257-19.375,12.677-24.141
		c0.722-1.406,1.342-2.295,1.859-2.666c0.518-0.371,1.068-0.557,1.654-0.557c0.273,0,0.732,0.039,1.376,0.117
		s1.132,0.117,1.464,0.117c0.312,0,0.708-0.049,1.186-0.146c0.478-0.098,0.775-0.146,0.893-0.146c1.054,0,1.581,0.425,1.581,1.275
		c0,0.693-0.508,1.039-1.523,1.039c-0.84,0-1.572,0.298-2.197,0.893c-0.625,0.595-1.006,1.023-1.143,1.287
		c-0.137,0.263-0.205,0.892-0.205,1.886V111.385z"/>
	<path stroke="#000000" stroke-miterlimit="10" d="M84.279,80.414c0-1.817-1.104-2.727-3.311-2.727c-1.113,0-1.67-0.454-1.67-1.362
		c0-0.869,0.711-1.304,2.134-1.304c0.448,0,1.091,0.078,1.929,0.234c0.838,0.156,1.471,0.234,1.9,0.234
		c0.584,0,1.422-0.088,2.514-0.264s1.91-0.264,2.455-0.264c0.409,0,0.793,0.116,1.154,0.348s0.541,0.512,0.541,0.84
		c0,0.561-0.157,0.927-0.469,1.101c-0.313,0.174-0.952,0.324-1.919,0.451s-1.611,0.508-1.934,1.143s-0.483,1.353-0.483,2.153v23.877
		c0,2.949-0.327,5.181-0.981,6.694c-0.655,1.514-1.724,2.837-3.208,3.97c-1.484,1.133-3.204,1.968-5.156,2.505
		c-1.953,0.537-4.083,0.806-6.387,0.806c-4.141,0-7.573-1.015-10.298-3.042c-2.725-2.028-4.087-4.809-4.087-8.339v-27.44
		c0-0.566-0.151-1.039-0.454-1.419c-0.303-0.38-0.952-0.629-1.948-0.746s-1.607-0.289-1.831-0.517
		c-0.225-0.227-0.337-0.519-0.337-0.875c0-0.395,0.175-0.715,0.526-0.962s0.75-0.371,1.199-0.371c0.565,0,1.374,0.088,2.427,0.264
		s1.842,0.264,2.369,0.264c0.624,0,1.535-0.098,2.733-0.293c1.198-0.195,2.11-0.293,2.733-0.293c0.663,0,1.208,0.118,1.638,0.355
		c0.428,0.237,0.643,0.582,0.643,1.036c0,0.376-0.103,0.687-0.308,0.934s-0.737,0.404-1.597,0.473
		c-0.86,0.068-1.519,0.269-1.978,0.601c-0.459,0.331-0.688,1.054-0.688,2.166v26.669c0,2.635,0.93,4.723,2.791,6.265
		s4.239,2.313,7.138,2.313c1.821,0,3.613-0.298,5.375-0.894c1.763-0.597,3.275-1.496,4.539-2.698c1.263-1.202,1.973-2.8,2.129-4.794
		c0.117-0.508,0.176-1.681,0.176-3.518V80.414z"/>
	<path stroke="#000000" stroke-miterlimit="10" d="M99.191,82.688c0,0.976,0.335,1.965,1.006,2.969
		c0.67,1.005,2.386,2.492,5.146,4.461c5.332,3.765,8.877,6.803,10.635,9.114s2.637,4.773,2.637,7.387
		c0,3.706-1.436,6.588-4.307,8.646s-6.017,3.087-9.434,3.087c-2.422,0-4.908-0.503-7.457-1.509
		c-2.549-1.006-3.823-2.065-3.823-3.179c0-0.273,0.029-0.786,0.088-1.538s0.088-1.694,0.088-2.827c0-0.391-0.034-0.864-0.103-1.421
		c-0.069-0.557-0.103-0.923-0.103-1.099c0-0.723,0.425-1.084,1.276-1.084c0.947,0,1.479,0.723,1.595,2.168
		c0.234,2.383,1.074,4.238,2.52,5.566s3.447,1.992,6.006,1.992c2.578,0,4.711-0.727,6.4-2.18s2.535-3.35,2.535-5.689
		c0-1.403-0.57-2.896-1.71-4.476c-1.14-1.579-4.124-4.085-8.954-7.518c-1.992-1.406-3.561-2.603-4.703-3.589
		c-1.143-0.986-2.1-2.153-2.871-3.501c-0.772-1.348-1.157-2.881-1.157-4.601c0-2.792,1.264-5.106,3.794-6.943
		c2.529-1.836,5.445-2.754,8.746-2.754c1.875,0,3.881,0.464,6.02,1.392s3.209,2.017,3.209,3.267c0,0.176-0.011,0.454-0.029,0.835
		c-0.02,0.381-0.029,0.942-0.029,1.685c0,0.195,0.039,0.576,0.117,1.143c0,1.289-0.445,1.934-1.333,1.934
		c-0.315,0-0.627-0.15-0.933-0.452c-0.307-0.302-0.459-0.627-0.459-0.978c0-1.906-0.647-3.37-1.941-4.392
		c-1.293-1.021-2.874-1.532-4.741-1.532c-2.12,0-3.938,0.585-5.456,1.755S99.191,81.284,99.191,82.688z"/>
	<path stroke="#000000" stroke-miterlimit="10" d="M143.834,115.1c0.998,0,1.756-0.262,2.274-0.786s0.778-1.195,0.778-2.011
		c0-0.738,0.165-1.325,0.498-1.763c0.332-0.437,0.722-0.655,1.172-0.655c0.449,0,0.824,0.205,1.127,0.615s0.455,0.957,0.455,1.641
		s0.029,1.421,0.088,2.212s0.088,1.333,0.088,1.626c0,0.801-0.113,1.323-0.338,1.567s-0.805,0.366-1.742,0.366h-23.701
		c-1.66,0-2.799-0.126-3.414-0.377s-0.922-0.627-0.922-1.13c0-0.792,0.557-1.188,1.67-1.188c1.425,0,2.354-0.229,2.783-0.688
		c0.429-0.459,0.645-1.187,0.645-2.183V85.539c0-2.891-0.049-4.805-0.146-5.742c-0.099-0.938-0.342-1.538-0.732-1.802
		c-0.392-0.264-1.172-0.396-2.344-0.396c-0.703,0-1.246-0.133-1.627-0.399s-0.57-0.606-0.57-1.021c0-0.375,0.165-0.705,0.498-0.991
		c0.332-0.286,0.751-0.43,1.26-0.43h22.559c0.897,0,1.483,0.186,1.758,0.557c0.273,0.371,0.473,0.918,0.6,1.641
		s0.191,1.914,0.191,3.574c0,0.762-0.322,1.143-0.967,1.143c-0.371,0-0.699-0.113-0.982-0.339c-0.283-0.227-0.596-0.797-0.938-1.712
		c-0.343-0.914-0.694-1.499-1.058-1.755c-0.361-0.256-0.777-0.384-1.246-0.384h-8.045c-1.35,0-2.201,0.19-2.555,0.572
		c-0.352,0.382-0.527,0.955-0.527,1.719v6.196c0,1.449,0.195,2.403,0.587,2.864c0.392,0.46,1.185,0.689,2.378,0.689h7.812
		c0.646,0,1.136-0.259,1.468-0.776c0.333-0.518,0.5-1.099,0.5-1.743c0-0.332,0.136-0.61,0.41-0.835
		c0.273-0.225,0.596-0.337,0.967-0.337c0.391,0,0.713,0.127,0.967,0.38c0.253,0.253,0.381,0.613,0.381,1.081
		c0,0.409-0.064,0.998-0.191,1.768s-0.189,1.397-0.189,1.884c0,0.74,0.082,1.52,0.248,2.338s0.25,1.314,0.25,1.489
		c0,0.448-0.146,0.818-0.439,1.11s-0.635,0.438-1.025,0.438c-0.41,0-0.752-0.181-1.025-0.542c-0.274-0.361-0.41-0.854-0.41-1.479
		c0-0.742-0.196-1.27-0.588-1.582s-1.037-0.469-1.938-0.469h-7.753c-0.704,0-1.282,0.142-1.732,0.425s-0.675,0.698-0.675,1.245
		v18.721c0,0.977,0.249,1.631,0.748,1.963s1.355,0.498,2.568,0.498H143.834z"/>
	<path stroke="#000000" stroke-miterlimit="10" d="M173.283,74.025c6.836,0,12.206,2.344,16.113,7.031
		c3.906,4.688,5.859,9.951,5.859,15.791c0,4.316-1.061,8.262-3.18,11.836s-4.883,6.094-8.291,7.559s-7.026,2.197-10.854,2.197
		c-6.23,0-11.416-2.168-15.557-6.504c-4.142-4.336-6.211-9.844-6.211-16.523c0-3.496,0.918-6.953,2.754-10.371
		c1.835-3.418,4.428-6.108,7.777-8.071S168.907,74.025,173.283,74.025z M173.108,115.656c3.678,0,6.745-0.812,9.201-2.436
		c2.455-1.623,4.211-3.623,5.268-6c1.057-2.376,1.586-5.54,1.586-9.492c0-6.826-1.43-12.044-4.285-15.653
		c-2.857-3.608-6.722-5.413-11.594-5.413c-5.029,0-8.962,1.854-11.799,5.561c-2.838,3.707-4.256,8.103-4.256,13.188
		C157.229,108.908,162.521,115.656,173.108,115.656z"/>
</g>
</svg>
