<?xml version="1.0" encoding="utf-8"?>
<!-- Generator: Adobe Illustrator 16.0.3, SVG Export Plug-In . SVG Version: 6.00 Build 0)  -->
<!DOCTYPE svg PUBLIC "-//W3C//DTD SVG 1.1//EN" "http://www.w3.org/Graphics/SVG/1.1/DTD/svg11.dtd">
<svg version="1.1" id="Capa_1" xmlns="http://www.w3.org/2000/svg" xmlns:xlink="http://www.w3.org/1999/xlink" x="0px" y="0px"
	 width="407.111px" height="196.5px" viewBox="0 0 407.111 196.5" enable-background="new 0 0 407.111 196.5" xml:space="preserve">
<circle fill="#F7CA80" stroke="#311A09" stroke-width="6" stroke-miterlimit="10" cx="99.113" cy="89.901" r="68.484"/>
<polygon fill="#F69929" stroke="#311A09" stroke-miterlimit="10" points="60.645,60.75 137.578,60.75 137.578,57.176 
	106.446,43.667 90.549,43.667 60.645,57.176 "/>
<image overflow="visible" width="1200" height="1200" xlink:href="2B2812F3.jpg"  transform="matrix(0.0888 0 0 0.0888 -116.7776 15.7773)">
</image>
<rect x="54.154" y="120.837" fill="#F69929" stroke="#311A09" stroke-miterlimit="10" width="89.917" height="5.568"/>
<rect x="58.553" y="114.083" fill="#F69929" stroke="#311A09" stroke-miterlimit="10" width="81.117" height="4.595"/>
<g>
	<rect x="63.924" y="108.776" fill="#F69929" stroke="#311A09" stroke-miterlimit="10" width="10.563" height="3.75"/>
	<polygon fill="#F69929" stroke="#311A09" stroke-miterlimit="10" points="71.237,72.839 67.237,72.839 66.737,106.964 
		71.737,106.964 	"/>
	<rect x="63.924" y="67.547" fill="#F69929" stroke="#311A09" stroke-miterlimit="10" width="10.563" height="3.75"/>
</g>
<g>
	<rect x="82.737" y="108.641" fill="#F69929" stroke="#311A09" stroke-miterlimit="10" width="10.563" height="3.75"/>
	<polygon fill="#F69929" stroke="#311A09" stroke-miterlimit="10" points="90.049,72.703 86.049,72.703 85.549,106.828 
		90.549,106.828 	"/>
	<rect x="82.737" y="67.412" fill="#F69929" stroke="#311A09" stroke-miterlimit="10" width="10.563" height="3.75"/>
</g>
<g>
	<rect x="103.633" y="108.641" fill="#F69929" stroke="#311A09" stroke-miterlimit="10" width="10.563" height="3.75"/>
	<polygon fill="#F69929" stroke="#311A09" stroke-miterlimit="10" points="110.946,72.703 106.946,72.703 106.446,106.828 
		111.446,106.828 	"/>
	<rect x="103.633" y="67.412" fill="#F69929" stroke="#311A09" stroke-miterlimit="10" width="10.563" height="3.75"/>
</g>
<path fill="#F69929" stroke="#311A09" stroke-miterlimit="10" d="M60.645,57.176"/>
<g>
	<rect x="123.633" y="108.641" fill="#F69929" stroke="#311A09" stroke-miterlimit="10" width="10.563" height="3.75"/>
	<polygon fill="#F69929" stroke="#311A09" stroke-miterlimit="10" points="130.946,72.703 126.946,72.703 126.446,106.828 
		131.446,106.828 	"/>
	<rect x="123.633" y="67.412" fill="#F69929" stroke="#311A09" stroke-miterlimit="10" width="10.563" height="3.75"/>
</g>
<rect x="60.645" y="62.362" fill="#F69929" stroke="#311A09" stroke-miterlimit="10" width="76.933" height="3.451"/>
<ellipse fill="#F69929" stroke="#311A09" stroke-miterlimit="10" cx="99.112" cy="52.209" rx="5.517" ry="5.164"/>
<line fill="#F69929" stroke="#311A09" stroke-miterlimit="10" x1="62.612" y1="59.025" x2="76.049" y2="59.025"/>
<line fill="#F69929" stroke="#311A09" stroke-miterlimit="10" x1="78.082" y1="59.025" x2="81.549" y2="59.025"/>
<line fill="#F69929" stroke="#311A09" stroke-miterlimit="10" x1="60.924" y1="117.188" x2="72.174" y2="117.188"/>
<line fill="#F69929" stroke="#311A09" stroke-miterlimit="10" x1="73.737" y1="117.188" x2="78.174" y2="117.188"/>
<line fill="#F69929" stroke="#311A09" stroke-miterlimit="10" x1="55.924" y1="124.75" x2="73.737" y2="124.75"/>
<line fill="#F69929" stroke="#311A09" stroke-miterlimit="10" x1="75.955" y1="124.75" x2="80.237" y2="124.75"/>
<g>
	<path d="M183.776,74.832h7.619l15.84,31.799l15.9-31.799h8.639v0.84c-5.58,0.54-6.119,1.14-5.879,7.14l0.42,21.299
		c0.18,6.18,0.42,6.959,6.059,7.439v0.84h-14.699v-0.84c5.279-0.42,5.461-1.2,5.4-7.439l-0.24-25.199h-0.24l-16.26,32.818h-0.539
		l-14.76-30.778h-0.119l-0.781,16.199c-0.18,2.819-0.24,4.86-0.24,6.479c0,5.76,0.602,7.38,6.18,7.92v0.84h-14.459v-0.84
		c3.721-0.301,4.98-1.32,5.461-3.72c0.42-1.8,0.898-5.399,1.318-11.58l0.84-10.98c0.061-1.62,0.121-2.939,0.121-4.02
		c0-4.26-1.02-5.04-5.58-5.58V74.832z"/>
	<path d="M271.914,92.711c0,7.5-1.02,12.359-4.74,16.199c-2.641,2.641-6.779,4.2-10.979,4.2c-3.541,0-7.021-0.78-9.781-2.999
		c-3.119-2.521-4.738-6.24-4.738-13.02V81.912c0-5.16-0.48-5.76-5.82-6.24v-0.84h14.459v0.84c-5.1,0.12-5.52,1.44-5.52,6.24v13.319
		c0,10.62,4.859,15.3,12.959,15.3c9.24,0,12.48-7.08,12.539-17.52v-3.18c0-6.54-0.059-9-0.479-10.799
		c-0.42-1.92-2.281-2.94-6.48-3.36v-0.84h14.76v0.84c-3.301,0.36-5.279,1.44-5.58,3.3s-0.6,4.26-0.6,10.859V92.711z"/>
	<path d="M302.033,83.532c-1.02-3.48-2.459-8.22-8.279-8.22c-4.318,0-6.479,2.82-6.479,6.72c0,5.04,3.658,7.02,7.559,9
		c2.641,1.32,10.02,3.9,10.02,11.4c0,6.239-4.799,10.738-12.359,10.859c-2.459-0.121-4.559-0.48-6.059-0.961
		c-1.441-0.479-2.221-0.899-2.58-1.14c-0.48-1.56-1.08-5.88-1.441-9.479h0.961c0.959,3.24,3.539,10.02,10.559,10.02
		c4.621,0,7.441-2.52,7.441-7.799c0-6.061-4.92-8.101-8.1-9.9c-0.541-0.3-9.361-3.12-9.361-10.439c0-4.98,4.08-9.66,11.16-9.66
		c1.98,0,3.721,0.18,7.02,1.26c0.24,2.04,0.541,4.26,0.961,8.339H302.033z"/>
	<path d="M309.174,111.551c5.641-0.301,6.061-1.32,6.061-5.939v-23.52c0-5.16-0.48-6.18-5.461-6.42v-0.84h26.1
		c0,2.1,0.301,5.64,0.541,9.18l-1.021,0.18c-1.26-6.12-2.398-7.92-9.658-7.92h-5.641c-1.619,0-1.68,0.12-1.68,1.68v14.039h7.02
		c4.74,0,5.879-0.6,6.779-4.62h1.02v11.16h-1.02c-0.959-4.62-2.219-4.86-6.779-4.86h-7.02v11.7c0,5.64,2.459,5.64,7.439,5.64
		c3.66,0,7.26-0.06,9.18-2.28c0.961-1.14,2.461-3.24,3.359-5.939h1.021c-0.541,2.22-1.682,7.56-2.16,9.6h-28.08V111.551z"/>
	<path d="M384.592,93.071c0,11.939-9.539,20.22-20.939,20.22c-10.979,0-19.859-8.1-19.859-19.2c0-10.08,7.801-20.159,21.18-20.159
		C374.992,73.932,384.592,81.432,384.592,93.071z M347.994,92.352c0,11.699,7.379,19.499,17.098,19.499
		c8.102,0,15.42-5.579,15.42-16.259c0-13.62-7.619-20.219-17.279-20.219C355.254,75.432,347.994,80.772,347.994,92.352z"/>
</g>
</svg>
